<svg xmlns="http://www.w3.org/2000/svg" width="640" height="306" viewBox="0 0 640 306"><path fill="#EF5E80" d="M639.9 306H.1s-.1 0-.1-.1V.1C0 0 0 0 .1 0h639.8s.1 0 .1.1l-.1 305.9c.1 0 .1 0 0 0z"/><g fill="#F8F4E3"><path d="M30.7 154.7H36v-29.4h-5.4v-13.6h29c3.6 0 6.8.4 9.6 1.3s5.1 2.1 7 3.8c1.9 1.6 3.3 3.6 4.3 5.9s1.4 4.8 1.4 7.6c0 3-.4 5.6-1.2 8-.8 2.3-2.1 4.3-3.8 5.8-1.8 1.5-4 2.7-6.8 3.5-2.7.8-6 1.2-9.9 1.2h-6.6v6h5.8v13.6h-29v-13.7zm28.4-19.4c3.4 0 5-1.5 5-4.6 0-3-1.7-4.6-5-4.6H54v9.1h5.1zM83.3 148.7c0-3 .5-5.8 1.4-8.4.9-2.6 2.3-4.8 4.2-6.6 1.9-1.8 4.2-3.3 7-4.3s6-1.6 9.7-1.6c3.6 0 6.8.5 9.6 1.6 2.8 1 5.1 2.5 7 4.3 1.9 1.8 3.3 4 4.2 6.6s1.4 5.4 1.4 8.4-.5 5.8-1.4 8.4c-1 2.5-2.4 4.7-4.2 6.6-1.9 1.8-4.2 3.3-7 4.3s-6 1.6-9.6 1.6c-3.7 0-6.9-.5-9.7-1.6-2.8-1-5.1-2.5-7-4.3-1.9-1.8-3.3-4-4.2-6.6-.9-2.6-1.4-5.4-1.4-8.4zm22.3 7.5c1.2 0 2-.6 2.6-1.8.6-1.2.8-3.1.8-5.7 0-2.7-.3-4.6-.8-5.8-.5-1.2-1.4-1.8-2.6-1.8-1.2 0-2.1.6-2.6 1.8-.5 1.2-.8 3.1-.8 5.8 0 2.6.3 4.5.8 5.7.4 1.2 1.3 1.8 2.6 1.8zM133.6 122.1c0-.6-.1-1.1-.4-1.4-.3-.3-.7-.5-1.3-.5-.6 0-1.2.1-1.8.4s-1.1.5-1.6.8l-3.4-9c.8-.6 1.8-1.2 2.9-1.8 1.1-.6 2.3-1.2 3.6-1.8s2.6-1 4-1.3c1.4-.3 2.8-.5 4.2-.5 2.6 0 4.6.3 6.2.9s2.8 1.5 3.7 2.6c.9 1.1 1.5 2.4 1.8 3.9.3 1.5.4 3.1.4 4.9v35.2c0 .6.1 1.1.4 1.4.3.4.7.6 1.3.6.6 0 1.2-.1 1.6-.3.4-.2.9-.5 1.4-.7l2.4 9.7c-1.7 1.2-3.7 2.3-6.1 3.1-2.4.9-4.8 1.3-7.1 1.3-8.1 0-12.2-3.5-12.2-10.4v-37.1zM163.6 158.7l.4-15.8c0-1.3-.6-1.9-1.7-1.9-.7 0-1.3.1-1.8.3-.5.2-1.1.5-1.6.7l-2.2-9.7c.8-.5 1.7-1.1 2.8-1.6 1.1-.6 2.2-1.1 3.4-1.5 1.2-.4 2.4-.8 3.7-1 1.3-.3 2.5-.4 3.6-.4 2.5 0 4.5.3 6.1.9 1.6.6 2.8 1.4 3.7 2.5.9 1 1.5 2.3 1.8 3.7.3 1.4.5 2.9.5 4.6v.8l-.4 14.1c0 .6.1 1.1.4 1.4.2.4.7.6 1.2.6.7 0 1.2-.1 1.6-.3.4-.2.9-.4 1.5-.7l2.2 9.8c-1.6 1.2-3.6 2.2-6 3-2.4.8-4.7 1.2-7.1 1.2-8.1 0-12.2-3.4-12.2-10.1v-.6zm-1.6-43.3c0-2.3.8-4.3 2.5-5.8s4.2-2.3 7.8-2.3 6.1.8 7.8 2.3c1.7 1.5 2.5 3.5 2.5 5.8s-.8 4.3-2.5 5.9c-1.7 1.6-4.3 2.4-7.8 2.4s-6.1-.8-7.8-2.4c-1.7-1.6-2.5-3.5-2.5-5.9zM192.2 154c2.7 1.3 5.2 2.3 7.5 3 2.3.6 4.6 1 7 1 1.7 0 2.8-.2 3.2-.6.5-.4.7-.8.7-1.3 0-.4-.1-.7-.4-1.1-.3-.3-1-.6-2.2-.8l-3.8-.6c-4.5-.7-7.7-2-9.6-4-1.9-2-2.9-4.8-2.9-8.5 0-4.2 1.8-7.4 5.4-9.7 3.6-2.3 8.5-3.5 14.6-3.5 2.1 0 4.1.1 5.8.3 1.7.2 3.3.4 4.8.8 1.4.3 2.8.7 4.1 1.1 1.3.4 2.5.9 3.8 1.4l-4 11.2c-1.7-.7-3.5-1.4-5.3-2-1.8-.6-3.8-.9-6-.9-.9 0-1.5 0-2 .1s-.8.2-1.1.3c-.2.1-.4.3-.5.5-.1.2-.1.4-.1.6 0 .5.2.8.6 1 .4.2 1.1.4 2.2.6l4.1.8c2.4.5 4.4 1.1 6.1 1.8 1.7.7 3 1.5 4 2.5s1.7 2.1 2.1 3.5c.4 1.3.6 2.9.6 4.6 0 2.7-.7 4.9-2 6.6-1.3 1.8-3 3.2-5 4.2s-4.2 1.8-6.6 2.2-4.7.6-7 .6c-3.5 0-6.8-.3-9.7-.8-3-.5-5.7-1.3-8.3-2.4V154zM236.4 122.1c0-.6-.1-1.1-.4-1.4-.3-.3-.7-.5-1.3-.5-.6 0-1.2.1-1.8.4s-1.1.5-1.6.8l-3.4-9c.8-.6 1.8-1.2 2.9-1.8 1.1-.6 2.3-1.2 3.6-1.8s2.6-1 4-1.3c1.4-.3 2.8-.5 4.2-.5 2.6 0 4.6.3 6.2.9s2.8 1.5 3.7 2.6c.9 1.1 1.5 2.4 1.8 3.9.3 1.5.4 3.1.4 4.9V132c1.5-1.4 3.2-2.4 4.9-3.1 1.7-.7 3.9-1 6.4-1 4.3 0 7.4 1.2 9.3 3.6 1.9 2.4 2.8 5.6 2.8 9.8v13c0 .6.1 1.1.4 1.4.3.4.7.6 1.3.6.6 0 1.2-.1 1.6-.3.4-.2.9-.5 1.4-.7l2.4 9.7c-1.7 1.2-3.7 2.3-6.1 3.1-2.4.9-4.8 1.3-7.1 1.3-8.1 0-12.2-3.5-12.2-10.4v-11.4c0-2.3-.8-3.5-2.5-3.5-.9 0-1.5.3-2 1-.5.6-.7 1.5-.7 2.6v20.9h-18.2v-46.5z"/></g><g fill="#F2F2F2"><path d="M39 193.1h6.1v.4c-.2 1.4-.6 3.4-2.2 5.1-1.5 1.6-3.3 2.2-5.4 2.2-1.8 0-3.6-.5-5-1.9-1.1-1.1-1.9-2.7-1.9-4.9 0-2.6 1.1-4.6 2.4-6 1.8-1.8 3.8-2.4 6.1-2.4 1.4 0 2.6.2 3.9 1 1 .6 1.7 1.5 2.1 2.2l-1.3 1.1c-.4-.8-.9-1.4-1.8-2-.9-.5-1.7-.8-2.8-.8-2.4 0-4 1-4.8 1.8-1.3 1.3-2 3.3-2 4.9 0 1.5.6 2.9 1.5 3.9 1.2 1.2 2.6 1.5 3.9 1.5 1.2 0 2.7-.2 3.9-1.5.8-.8 1.3-2 1.6-3.1h-4.4l.1-1.5zM49.5 191.4l-1.1 9.1h-1.6l1.1-9.1h1.6zm-1.2-4.2c.2-.2.5-.4.9-.4.3 0 .5.1.7.3.2.2.3.4.3.7 0 .4-.2.7-.4.9-.3.3-.6.4-.9.4-.3 0-.5-.1-.7-.3-.2-.2-.3-.4-.3-.7.1-.4.3-.7.4-.9zM52.9 191.4l2 6.2 3.5-6.2h1.8l-5.7 9.7-3.3-9.7h1.7zM69.3 198.2c-.4.7-1.1 1.5-1.7 1.9-.9.6-1.9.7-2.6.7-1.1 0-2.1-.2-3-1.1-.6-.6-1.2-1.6-1.2-3.3 0-1.6.6-2.9 1.6-3.9.9-.9 2-1.3 3.2-1.3 1.5 0 2.4.6 3 1.1.7.7 1.3 1.9 1 4h-7.1c0 1.3.4 2 .8 2.4.5.5 1.1.7 1.8.7.5 0 1.2-.1 1.8-.5.5-.3.9-.9 1.2-1.4l1.2.7zm-1.4-3.2c0-.7-.3-1.4-.8-1.8-.5-.5-1.2-.6-1.7-.6-.8 0-1.5.2-2 .8-.4.4-.7 1-.9 1.6h5.4zM79.5 199.7l-3.2-8.3H78l2.4 6.5 3.8-6.5H86l-8.4 14.2h-1.8l3.7-5.9zM87.7 199.5c-.6-.7-1.2-1.7-1.2-3.2 0-1.3.4-2.7 1.7-3.8 1-.9 2.2-1.4 3.7-1.4s2.6.5 3.3 1.3c.9.9 1.1 2 1.1 3 0 2-.8 3.3-1.5 4-1.2 1.1-2.6 1.4-3.8 1.4-1.3 0-2.4-.3-3.3-1.3zm1.7-5.9c-.8.7-1.2 1.8-1.2 2.9 0 1 .4 1.7.8 2.1.3.4 1 .9 2.1.9s2-.5 2.5-1.1c.7-.7 1.1-1.8 1.1-2.9 0-.9-.4-1.6-.7-2-.5-.5-1.2-.8-2.1-.8-.7-.1-1.7 0-2.5.9zM100.3 196.2c0 .4-.1.7-.1 1.2 0 .6.1 1.1.6 1.5.4.3.9.5 1.4.5.6 0 1.1-.2 1.5-.5.5-.5.6-1.3.8-2.4l.6-5.1h1.6l-.6 5.2c-.2 1.2-.3 2.4-1.1 3.2-.8.8-2 .9-2.6.9-1.2 0-2.1-.3-2.7-.8-.7-.6-.9-1.4-.9-2.3 0-.4.1-1.2.1-1.6l.6-4.7h1.6l-.8 4.9zM109.6 191.4h1.6l-.1 1c.2-.3.5-.6.9-.9.4-.2.8-.3 1.3-.3s1 .1 1.3.4l-.9 1.4c-.2-.1-.5-.3-.9-.3s-.9.1-1.2.5c-.6.6-.8 1.7-.9 2.6l-.6 4.8h-1.6l1.1-9.2zM124.6 193.5c-.1-.3-.2-.5-.4-.6-.2-.2-.5-.3-.8-.3-.3 0-.6.1-.9.3-.2.2-.4.5-.4.8 0 .3.1.5.3.6.2.2.6.4.9.5l.8.4c.4.2.9.5 1.2.8.4.5.6 1 .6 1.6 0 .8-.3 1.6-.8 2.1-.8.9-2 1-2.6 1-.7 0-1.3-.1-1.9-.6-.5-.4-.9-1.1-1.1-1.7l1.4-.6c.1.3.3.8.5 1.1.3.3.7.4 1.1.4.3 0 .8 0 1.2-.4.3-.3.5-.7.5-1.2 0-.4-.2-.7-.5-.9-.2-.1-.6-.4-.9-.5l-.5-.2c-.4-.2-.9-.5-1.2-.8-.4-.4-.5-.9-.5-1.4 0-.8.4-1.5.8-1.9.6-.6 1.4-.8 2.1-.8.6 0 1.1.1 1.7.6.4.3.7.7.8 1.1l-1.4.6zM130.3 192.8l-.9 7.7h-1.6l.9-7.7h-1l.2-1.5h1l.4-3.3h1.6l-.4 3.3h1.6l-.2 1.5h-1.6zM136.1 199.7l-3.2-8.3h1.8l2.4 6.5 3.8-6.5h1.8l-8.4 14.2h-1.8l3.6-5.9zM146.8 184.5l-2 16h-1.6l2-16h1.6zM156.4 198.2c-.4.7-1.1 1.5-1.7 1.9-.9.6-1.9.7-2.6.7-1.1 0-2.1-.2-3-1.1-.6-.6-1.2-1.6-1.2-3.3 0-1.6.6-2.9 1.6-3.9.9-.9 2-1.3 3.2-1.3 1.5 0 2.4.6 3 1.1.7.7 1.3 1.9 1 4h-7.1c0 1.3.4 2 .8 2.4.5.5 1.1.7 1.8.7.5 0 1.2-.1 1.8-.5.5-.3.9-.9 1.2-1.4l1.2.7zm-1.3-3.2c0-.7-.3-1.4-.8-1.8-.5-.5-1.2-.6-1.7-.6-.8 0-1.5.2-2 .8-.4.4-.7 1-.9 1.6h5.4zM163 193.5c-.1-.3-.2-.5-.4-.6-.2-.2-.5-.3-.8-.3-.3 0-.6.1-.9.3-.2.2-.4.5-.4.8 0 .3.1.5.3.6.2.2.6.4.9.5l.8.4c.4.2.9.5 1.2.8.4.5.6 1 .6 1.6 0 .8-.3 1.6-.8 2.1-.8.9-2 1-2.6 1-.7 0-1.3-.1-1.9-.6-.5-.4-.9-1.1-1.1-1.7l1.4-.6c.1.3.3.8.6 1.1.3.3.7.4 1.1.4.3 0 .8 0 1.2-.4.3-.3.5-.7.5-1.2 0-.4-.2-.7-.5-.9-.2-.1-.6-.4-.9-.5l-.5-.2c-.4-.2-.9-.5-1.2-.8-.4-.4-.5-.9-.5-1.4 0-.8.4-1.5.8-1.9.6-.6 1.4-.8 2.1-.8.6 0 1.1.1 1.7.6.4.3.7.7.8 1.1l-1.5.6zM168.1 184.5h1.6l-1 8c0-.1.4-.5.9-.9.6-.4 1.2-.4 1.7-.4.7 0 1.5.1 2.2.8.6.6.7 1.4.7 2 0 .5-.1 1-.1 1.5l-.6 5h-1.6l.5-4.6c0-.4.1-1.1.1-1.6 0-.4 0-.9-.5-1.4-.3-.3-.7-.5-1.3-.5-.7 0-1.3.3-1.6.6-.6.6-.8 1.7-.9 2.5l-.6 4.8H166l2.1-15.8zM184.8 198.2c-.4.7-1.1 1.5-1.7 1.9-.9.6-1.9.7-2.6.7-1.1 0-2.1-.2-3-1.1-.6-.6-1.2-1.6-1.2-3.3 0-1.6.6-2.9 1.6-3.9.9-.9 2-1.3 3.2-1.3 1.5 0 2.4.6 3 1.1.7.7 1.3 1.9 1 4H178c0 1.3.4 2 .8 2.4.5.5 1.1.7 1.8.7.5 0 1.2-.1 1.8-.5.5-.3.9-.9 1.2-1.4l1.2.7zm-1.3-3.2c0-.7-.3-1.4-.8-1.8-.5-.5-1.2-.6-1.7-.6-.8 0-1.5.2-2 .8-.4.4-.7 1-.9 1.6h5.4zM195.4 198.2c-.4.7-1.1 1.5-1.7 1.9-.9.6-1.9.7-2.6.7-1.1 0-2.1-.2-3-1.1-.6-.6-1.2-1.6-1.2-3.3 0-1.6.6-2.9 1.6-3.9.9-.9 2-1.3 3.2-1.3 1.5 0 2.4.6 3 1.1.7.7 1.3 1.9 1 4h-7.1c0 1.3.4 2 .8 2.4.5.5 1.1.7 1.8.7.5 0 1.2-.1 1.8-.5.5-.3.9-.9 1.2-1.4l1.2.7zm-1.3-3.2c0-.7-.3-1.4-.8-1.8-.5-.5-1.2-.6-1.7-.6-.8 0-1.5.2-2 .8-.4.4-.7 1-.9 1.6h5.4zM200.1 192.8l-.9 7.7h-1.6l.9-7.7h-1l.2-1.5h1l.4-3.3h1.6l-.4 3.3h1.6l-.2 1.5h-1.6zM206.8 193.5c-.1-.3-.2-.5-.4-.6-.2-.2-.5-.3-.8-.3-.3 0-.6.1-.9.3-.2.2-.4.5-.4.8 0 .3.1.5.3.6.2.2.6.4.9.5l.8.4c.4.2.9.5 1.2.8.4.5.6 1 .6 1.6 0 .8-.3 1.6-.8 2.1-.8.9-2 1-2.6 1-.7 0-1.3-.1-1.9-.6-.5-.4-.9-1.1-1.1-1.7l1.4-.6c.1.3.3.8.6 1.1.3.3.7.4 1.1.4.3 0 .8 0 1.2-.4.3-.3.5-.7.5-1.2 0-.4-.2-.7-.5-.9-.2-.1-.6-.4-.9-.5l-.5-.2c-.4-.2-.9-.5-1.2-.8-.4-.4-.5-.9-.5-1.4 0-.8.4-1.5.8-1.9.6-.6 1.4-.8 2.1-.8.6 0 1.1.1 1.7.6.4.3.7.7.8 1.1l-1.5.6zM223.2 191.4h1.6l-1.1 9.1h-1.6l.2-1.3c-.3.4-.7.8-1.1 1.1-.7.4-1.3.5-1.9.5-1.1 0-2.1-.2-3-1.1-.7-.7-1.2-1.8-1.2-3.3 0-1.9.7-3.2 1.6-4 .9-.8 1.9-1.2 3.3-1.2.6 0 1.3.1 1.9.4.5.3.9.6 1.2 1.1l.1-1.3zm-5.4 2c-.7.6-1.2 1.7-1.2 2.9 0 .9.3 1.8.9 2.4.5.5 1.2.7 1.8.7 1 0 1.7-.3 2.3-.9.7-.7 1-1.8 1-3s-.5-1.9-.9-2.2c-.4-.4-1-.7-1.9-.7-.8 0-1.5.4-2 .8zM232.9 191.4h1.6l-.1 1c.2-.3.5-.6.9-.8.5-.3.9-.4 1.4-.4.5 0 1.1.1 1.5.4.4.2.7.7.9 1.1.2-.4.6-.8 1-1 .5-.3 1.1-.4 1.7-.4.7 0 1.5.2 2.1.8.6.5.7 1.2.7 1.9 0 .5-.1 1-.2 1.8l-.6 4.9h-1.6l.6-4.9c.1-.5.1-.9.1-1.4 0-.3 0-.9-.4-1.3-.2-.2-.5-.4-1.1-.4-.6 0-1.1.2-1.4.5-.6.5-.7 1.4-.9 2.3l-.6 5.1H237l.7-5.4c.1-.6.2-1.5-.4-2.1-.2-.2-.6-.4-1.2-.4-.5 0-.9.2-1.3.5-.6.6-.8 1.7-.9 2.4l-.6 5h-1.6l1.2-9.2zM255 191.4h1.6l-1.1 9.1h-1.6l.2-1.3c-.3.4-.7.8-1.1 1.1-.7.4-1.3.5-1.9.5-1.1 0-2.1-.2-3-1.1-.7-.7-1.2-1.8-1.2-3.3 0-1.9.7-3.2 1.6-4 .9-.8 1.9-1.2 3.3-1.2.6 0 1.3.1 1.9.4.5.3.9.6 1.2 1.1l.1-1.3zm-5.4 2c-.7.6-1.2 1.7-1.2 2.9 0 .9.3 1.8.9 2.4.5.5 1.2.7 1.8.7 1 0 1.7-.3 2.3-.9.7-.7 1-1.8 1-3s-.5-1.9-.9-2.2c-.4-.4-1-.7-1.9-.7-.8 0-1.5.4-2 .8zM259.6 191.4h1.6l-.1 1.1c0-.1.4-.5.9-.9.6-.4 1.2-.4 1.7-.4.7 0 1.5.1 2.2.8.6.6.7 1.4.7 2 0 .5-.1 1-.1 1.5l-.6 5h-1.6l.5-4.6c0-.4.1-1.1.1-1.6 0-.4 0-.9-.5-1.4-.3-.3-.7-.5-1.3-.5-.7 0-1.3.3-1.6.6-.6.6-.8 1.7-.9 2.5l-.6 4.8h-1.6l1.2-8.9zM271.5 191.4l-1.1 9.1h-1.6l1.1-9.1h1.6zm-1.2-4.2c.2-.2.5-.4.9-.4.3 0 .5.1.7.3.2.2.3.4.3.7 0 .4-.2.7-.4.9-.3.3-.6.4-.9.4-.3 0-.5-.1-.7-.3-.2-.2-.3-.4-.3-.7.1-.4.2-.7.4-.9zM281.4 193.9c-.3-.4-.7-.7-1.1-1-.4-.2-1.1-.4-1.7-.4-1 0-1.8.4-2.4.9-.6.6-1.2 1.5-1.2 2.8 0 1.1.5 1.9.9 2.3.6.6 1.4.8 2.1.8.6 0 1.1-.1 1.7-.4.6-.3 1-.7 1.3-1l-.2 1.9c-.4.3-.9.6-1.3.7-.5.2-1.1.2-1.6.2-1.1 0-2.3-.2-3.2-1.2-.8-.8-1.2-1.9-1.2-3.2 0-1.4.6-2.8 1.6-3.8.6-.6 1.8-1.4 3.7-1.4.9 0 2 .2 3 .9l-.4 1.9zM285.1 196.2c0 .4-.1.7-.1 1.2 0 .6.1 1.1.5 1.5.4.3.9.5 1.4.5.6 0 1.1-.2 1.5-.5.5-.5.6-1.3.8-2.4l.6-5.1h1.6l-.6 5.2c-.2 1.2-.3 2.4-1.1 3.2-.8.8-2 .9-2.6.9-1.2 0-2.1-.3-2.7-.8-.7-.6-.9-1.4-.9-2.3 0-.4.1-1.2.1-1.6l.6-4.7h1.6l-.7 4.9zM294.4 191.4h1.6l-.1 1c.2-.3.5-.6.9-.9.4-.2.8-.3 1.3-.3s1 .1 1.3.4l-.9 1.4c-.2-.1-.5-.3-.9-.3s-.9.1-1.2.5c-.6.6-.8 1.7-.9 2.6l-.6 4.8h-1.6l1.1-9.2zM307.8 198.2c-.4.7-1.1 1.5-1.7 1.9-.9.6-1.9.7-2.6.7-1.1 0-2.1-.2-3-1.1-.6-.6-1.2-1.6-1.2-3.3 0-1.6.6-2.9 1.6-3.9.9-.9 2-1.3 3.2-1.3 1.5 0 2.4.6 3 1.1.7.7 1.3 1.9 1 4H301c0 1.3.4 2 .8 2.4.5.5 1.1.7 1.8.7.5 0 1.2-.1 1.8-.5.5-.3.9-.9 1.2-1.4l1.2.7zm-1.3-3.2c0-.7-.3-1.4-.8-1.8-.5-.5-1.2-.6-1.7-.6-.8 0-1.5.2-2 .8-.4.4-.7 1-.9 1.6h5.4zM310.2 198.9c.2-.2.6-.4.9-.4.3 0 .5.1.7.3.2.2.3.4.3.7 0 .2-.1.6-.4.9-.2.2-.5.3-.8.3-.4 0-.6-.2-.7-.3-.1-.1-.3-.4-.3-.7 0-.4.2-.7.3-.8z"/></g><g><path opacity=".4" fill="#565053" d="M554 217.5s-34.7-4.5-44.7-22.5c-9.4-62 97.8 10.6 89.9 18.3-7.8 7.7-45.2 4.2-45.2 4.2z"/><path fill="#323031" d="M590.4 130.8s-2.3-60.8-4.2-63.3c-2-2.6-10.8-4-15.6-4-4.9 0-13.5 1.4-15.5 4s-4.2 63.2-4.2 63.2 17.9 9.3 39.5.1"/><path fill="#FDA8AA" d="M592.5 198.8c-2.7.9-3.9 1.7-5.5 4.1-2 3.1-5.9 1.8-9.3 1.8-4.4 0-8.9.9-13.3 1.3-2.7.2-6.2.9-8.8-.5-2.4-1.3-3.8-4.4-5-6.8l-4.8 4.8c7.8 4.2 16.5 5 25.3 5.1 9.2.1 16.9-.3 25-5 3.9-2.2.4-8.3-3.5-6-7 4-13.6 4.1-21.5 4-7.4-.1-15.1-.6-21.7-4.1-3.1-1.7-6.4 1.7-4.8 4.8 2.5 4.8 5.6 9.4 11.2 10.7 6 1.4 13-.5 19.1-1 4.2-.4 8.7.7 12.8-.5 1.7-.5 3.3-1.4 4.3-2.9.5-.7.7-1.5 1.1-2.3.6-1.2-1.1 0 1.2-.7 4.4-1.4 2.5-8.2-1.8-6.8z"/><path fill="#EDAE49" d="M577.5 149.6c-5.5-.3-11.1-.3-16.6.1-2.5.2-5.1.7-7.6.7-1 0-2 .1-2.9-.5-.3-.2-1.9-2-1.7-2l-3.6 3.9c.6.2 1.1.4 1.7.6.9.5 2.4.7 3.4 1 2.3.6 4.6 1.1 6.9 1.5 5.2.8 10.4 1.1 15.7.8 7.7-.4 7.7-11.7 0-12-4.6-.2-9-1.1-13.3-2.9-3.8-1.7-7.1-4.1-11.2-4.9.5 3.7 1 7.3 1.4 11 3.6-2.4 10.2 3.4 13.9 4.4 5.8 1.6 12.1 0 18 .8 3.2.5 6.5 1.3 9.5 2.4.8.3 3.2 2.1 2.7.4.2.7-1.4 4.3-1.6 5-1.7 6.1-2.7 12.4-3.1 18.7-.1 1.8.3 4.8-.9 6.2-1.5 1.7-6.3 2.1-8.4 2.6-6.2 1.3-12.5 1.6-18.8 1.1-2.9-.2-6.5-.1-8-2.7-1.4-2.4-2.1-5.8-3-8.5-.9-2.9-1.7-5.8-2.1-8.8-.1-.8 0-8.1 0-8.1-1.5-1.9-2.9-3.9-4.4-5.8-.1 7.4-2.7 14.9-.7 22.3 2 7.3 7.1 9.8 14 11.1 7.8 1.5 15.8 2.3 23.8 2.2 7.3-.1 13.2-.4 16.5-7.7 4.9-10.8 9.4-31.7-7.1-34.3-7.7-1.2-15.3 1.7-22.4 4.5-6.8 2.7-13.1 6.1-18.3 11.4-2.9 3-1.9 7.2 1.2 9.4 6.2 4.6 14.1 5.5 21.6 4.8 6.7-.6 14.8-1.8 19.1-7.6 4.6-6.2 2.2-14.5-5.8-15.7-8.4-1.2-17.6 5.3-24.2 9.7-4.3 2.8-3.6 9.4 1.4 11 7 2.2 13.9 4.7 21 6.5 6.1 1.6 11.4-.9 12.1-7.5.7-7.7-11.3-7.6-12 0 0 .3-.1.6-.1.9l1.8-4.2c2-.6 1.9-1-.3-1.2-.6-.2-1.2-.4-1.8-.5-2-.6-4.1-1.3-6.1-1.9-3.8-1.2-7.6-2.4-11.4-3.5.5 3.7 1 7.3 1.4 11 3.8-2.5 7.7-4.9 11.9-6.8.4-.2 8.4-2.5 2.5-4.6-.2-.1-3.5 1.6-4 1.7-6.9 1.8-15 2.1-21-2.3.4 3.1.8 6.3 1.2 9.4 6.1-6.2 15.3-10 23.7-12 1.6-.4 5.7-1.6 7.3-.5 1.2.9.7 2.6.5 4.4-.3 3.5-.8 10.1-3.2 13-.6.7-1.7.5-3.8.6-2.5.1-5 .1-7.4 0-5.1-.2-10.1-.8-15-1.7-1.3-.2-4.2-.3-5.1-1.3-1.3-1.4-.9-4.9-.8-6.6.3-4.7 1.4-9.2 1.4-13.9 0-2.5-1.9-5.3-4.4-5.8-18.5-3.6-15.9 21-12.6 31.7 2.1 6.7 4 15.2 11.2 18 6.9 2.7 15.6 2.6 22.9 2 7-.6 15.3-1.6 21.5-5.1 6.2-3.5 6.8-10.4 7.1-16.8.2-4 .8-8 1.7-12 .9-3.8 2.8-7.7 3-11.7.3-8.4-8.3-11.2-15-13-4.2-1.2-8.7-1.9-13.1-2.1-4.4-.2-9.1 1-13.2-.9-6.9-3.1-13.8-7.1-21-2.4-4 2.6-3.9 9.9 1.4 11 4.5.9 8.6 4 13 5.6 4.7 1.7 9.7 2.4 14.7 2.7v-12c-8.8.5-16.2-1.3-24.5-3.5-6.6-1.7-13 2-11.5 9.5 1.3 6.6 7.1 11.8 13.8 12.5 4.4.4 8.9-.5 13.3-.8 4.6-.2 9.1-.2 13.7.1 7.8.3 7.8-11.7.1-12.1z"/><path fill="none" stroke="#F8F4E3" stroke-width="6" stroke-linecap="round" stroke-miterlimit="10" d="M603.5 143.1c-1.5-4.5-9.4-12.8-15.3-9.6-5.8 3.1-17.7 3.4-17.7 3.4s-12.2-.3-18-3.4c-5.9-3.2-14 5.1-15.5 9.6-.4 2-6.3 15 8.9 64.3 1.1 3.4 5.5 4.7 5.5 4.7 6.9 2.3 19 2.2 19 2.2s11.8.1 18.7-2.2c0 0 4.4-1.3 5.4-4.7 15.4-49.2 9.4-62.3 9-64.3z"/><path fill="none" stroke="#F8F4E3" stroke-width="3" stroke-miterlimit="10" d="M598.7 191.4c-8.5 11-28.1 10.3-28.1 10.3s-20 .8-28.6-10.3"/><path opacity=".4" fill="#F2F2F2" d="M596.4 139.1c-.9-3.2-.1 1.9-8 3.2-7.9 1.2 4.7 21.3 4.6 29.2 0 7.8 10.2 3.1 3.4-32.4"/><path opacity=".4" fill="#565053" d="M454 201.5s-34.7-4.5-44.7-22.5c-9.4-62 97.8 10.6 89.9 18.3-7.8 7.7-45.2 4.2-45.2 4.2z"/><path fill="#FDA8AA" d="M494.5 183.8c-2.7.9-3.9 1.7-5.5 4.1-2 3.1-5.9 1.8-9.3 1.8-4.4 0-8.9.9-13.3 1.3-2.7.2-6.2.9-8.8-.5-2.4-1.3-3.8-4.4-5-6.8l-4.8 4.8c7.8 4.2 16.5 5 25.3 5.1 9.2.1 16.9-.3 25-5 3.9-2.2.4-8.3-3.5-6-7 4-13.6 4.1-21.5 4-7.4-.1-15.1-.6-21.7-4.1-3.1-1.7-6.4 1.7-4.8 4.8 2.5 4.8 5.6 9.4 11.2 10.7 6 1.4 13-.5 19.1-1 4.2-.4 8.7.7 12.8-.5 1.7-.5 3.3-1.4 4.3-2.9.5-.7.7-1.5 1.1-2.3.6-1.2-1.1 0 1.2-.7 4.4-1.4 2.5-8.2-1.8-6.8z"/><path fill="#00798C" d="M479.8 137.9c-5.4.4-10.8 1-16.2 1.9-2.8.5-5.7 1.3-8.5 1.7-1 .1-2.1.3-3.1-.1-.6-.2-1.6-1.5-1.9-1.5-.5-1.2-1.1-.5-1.9 2.2-2.4 1.7-2.6 2.6-.8 2.6.7.5 2.8.5 3.7.6 2.7.4 5.4.7 8.2.8 5.6.2 11.2-.3 16.7-1.3 6.6-1.1 5.1-12.3-1.6-11.8-4.8.4-9.6.2-14.3-1.1-4.3-1.2-8-2.9-12.5-3.2l4.2 10.2c1.7-1.3 6 .8 7.6 1.4 3.1 1 6.1 1.9 9.4 1.8 7.2-.2 13.7-2 21-1 1.5.2 2.9.5 4.4.9.9.2 1.7.4 2.6.7-.9-1.1-1.4-1-1.4.2-1.5 1.7-1.3 7.7-1.5 9.8-.3 3.7-.3 7.4-.1 11.1.1 2.7.9 4.8-1.9 6.2-5 2.3-10.8 3-16.2 3.1-4.4.1-8.6-1-13-.9-1.1 0-3-.1-3.9.5-.4.2 2.5 1.2 1.2.4-1-.6-2.6-.5-3.4-1.2-.9-.2-.7-.2.7.1-.3-.5-.6-1.1-.9-1.6-.4-1.5-8.5-18.3-4.7-18.1l-6-6c.7 6.9-.9 14 1.5 20.7 2.9 7.6 8.8 9.2 16.3 9.6 8 .5 16 .1 23.9-1 6.8-.9 12.3-2 14.7-9.2 2.3-6.7 3.5-15.7 1.6-22.6-1.8-6.3-8.1-8.8-14.2-8.6-7.1.3-13.8 3.7-20 6.8-6.1 3.1-11.9 6.9-16.4 12.1-2.3 2.8-2.5 7.5 1.2 9.4 7.4 3.8 15.2 3.8 23.2 2.2 6.9-1.4 15.4-3.8 18.4-10.9 3.3-7.8-3.2-13.8-10.8-12.6-7.9 1.2-15.1 7.4-21.3 12.1-3.4 2.7-1.6 9.3 2.6 10 7.5 1.2 14.9 2.6 22.4 3.6 5.5.8 11.1-1.8 11-8-.1-7.7-12.1-7.7-12 0 4-2.4 4.7-3.7 2.3-3.8-1-.1-1.9-.3-2.9-.5-2-.3-3.9-.6-5.9-1-3.9-.6-7.8-1.3-11.8-1.9.9 3.3 1.8 6.7 2.6 10 3.1-2.4 6.4-4.7 9.8-6.7.8-.5 4.9-1.7 5.2-2.2-.8-3.7-1.9-4.7-3.4-3-.6.4-1.1.7-1.7.9-6.2 2.9-15.7 4.5-21.9 1.3.4 3.1.8 6.3 1.2 9.4 5.5-6.5 13.6-10.7 21.5-13.7 1.7-.6 7.7-2.9 9-1.9.9.6.3 6.1.2 7.1-.2 2.6-.8 4.9-1.3 7.4-.4 2.4-.3 1.5-3.2 2-2.5.4-5.1.7-7.6.9-4.3.3-8.7.5-13 .3-1.7-.1-5.9.4-7.4-.4-1.8-1.1-1.9-3.1-2.1-5-.4-4.3.4-8.6-.1-12.9-.4-3.4-2.5-5.8-6-6-7.6-.5-12.6 6-12.8 13.2-.2 7.8 3.2 15.4 6.7 22.2 2.8 5.3 7 9.3 13.4 9 2.3-.1 4.1-.5 6.4-.2 2.9.4 5.8.6 8.8.6 12.4-.1 31.6-2.6 31.6-18.4 0-3.7-.4-7.4-.2-11.2.2-4.5 1.6-8.9 2-13.3.7-8.6-6.6-11.2-13.8-12.4-4.6-.8-9.3-1.2-14-.9-4.5.2-9.4 2-13.9 1.1-4.2-.9-7.9-3-12.3-3.1-4-.1-7.2 1.3-10.3 3.7-4.5 3.5-.3 9.9 4.2 10.2 4.3.3 8.5 2.8 12.8 3.6 4.6.9 9.3 1.1 14 .8-.5-3.9-1.1-7.9-1.6-11.8-4.5.7-9 1-13.5.8-4.2-.2-8.2-1.4-12.3-1.5-6.5-.2-10.3 5.4-8.1 11.4 2.2 5.8 8.1 9.5 14.2 9.7 4.2.1 8.6-1.4 12.7-2.1 4.6-.8 9.3-1.3 13.9-1.6 8.2-.6 8.3-12.6.6-12.1z"/><path fill="none" stroke="#F8F4E3" stroke-width="3" stroke-miterlimit="10" d="M501.7 176.4c-8.5 11-28.1 10.3-28.1 10.3s-20 .8-28.6-10.3"/><path fill="#323031" d="M493.4 115.8s-2.3-60.8-4.2-63.3-10.8-4-15.6-4c-4.9 0-13.5 1.4-15.5 4s-4.2 63.2-4.2 63.2 17.9 9.3 39.5.1"/><path fill="none" stroke="#F8F4E3" stroke-width="6" stroke-linecap="round" stroke-miterlimit="10" d="M506.5 128.1c-1.5-4.5-9.4-12.8-15.3-9.6-5.8 3.1-17.7 3.4-17.7 3.4s-12.2-.3-18-3.4c-5.9-3.2-14 5.1-15.5 9.6-.4 2-6.3 15 8.9 64.3 1.1 3.4 5.5 4.7 5.5 4.7 6.9 2.3 19 2.2 19 2.2s11.8.1 18.7-2.2c0 0 4.4-1.3 5.4-4.7 15.4-49.2 9.4-62.3 9-64.3z"/><path opacity=".4" fill="#F2F2F2" d="M498.4 126.1c-.9-3.2-.1 1.9-8 3.2-7.9 1.2 4.7 21.3 4.6 29.2 0 7.8 10.2 3.1 3.4-32.4"/><path opacity=".4" fill="#565053" d="M371 207.4s-30.9-5-39.8-25c-8.4-69 87.2 11.8 80.2 20.4-7.1 8.5-40.4 4.6-40.4 4.6z"/><path fill="#323031" d="M405.4 122.8s-2.3-60.8-4.2-63.3-10.8-4-15.6-4c-4.9 0-13.5 1.4-15.5 4s-4.2 63.2-4.2 63.2 17.9 9.3 39.5.1"/><path fill="#FDA8AA" d="M407.5 189.8c-2.7.9-3.9 1.7-5.5 4.1-2 3.1-5.9 1.8-9.3 1.8-4.4 0-8.9.9-13.3 1.3-2.7.2-6.2.9-8.8-.5-2.4-1.3-3.8-4.4-5-6.8l-4.8 4.8c7.8 4.2 16.5 5 25.3 5.1 9.2.1 16.9-.3 25-5 3.9-2.2.4-8.3-3.5-6-7 4-13.6 4.1-21.5 4-7.4-.1-15.1-.6-21.7-4.1-3.1-1.7-6.4 1.7-4.8 4.8 2.5 4.8 5.6 9.4 11.2 10.7 6 1.4 13-.5 19.1-1 4.2-.4 8.7.7 12.8-.5 1.7-.5 3.3-1.4 4.3-2.9.5-.7.7-1.5 1.1-2.3.6-1.2-1.1 0 1.2-.7 4.4-1.4 2.5-8.2-1.8-6.8z"/><path fill="#003D5B" d="M353.5 144.5c.8 0 1.9.1 2.7 0h1.3c-1.2-3.1-1.9-3.8-2.3-2-1.2.9-2.4 5.2-3.3 6.7-1.6 2.5 1.1 6.2 4 5.1 3.3-1.2 6.6-2.2 10-2.9 3.2-.7 3.1-4.8.8-6.4-3.8-2.7-8.6-4.9-13.3-4-1.2.2-2.1 1.4-2.4 2.4-1.9 6.4-.6 15.6.8 22.1 1.3 6.4 4.3 13.3 8.4 18.5 4.4 5.6 10.8 6.9 17.6 7.5 7.5.6 15.9 1.1 23.2-1.2 13.1-4.2 19.8-19.8 19.9-32.6.1-8.7 2.5-32.5-13.2-29.1-4.2.9-7 4.1-10.7 6-3.9 2.1-8.6 2.1-12.9 2.1-10.2.1-20.5-.6-30.6-1.9-3-.4-4.7 4.1-2.5 6 8.4 7.1 18 9.1 28.8 7.8 11.4-1.4 22.6-3.7 33-8.7-1.8-1-3.5-2-5.3-3-.1 8.4-1.2 16.5-3.1 24.7-.7 2.8 1.7 4.7 4.3 4.3 7.1-1.1 8.3-10.3 7.5-16.2-1-6.8-6.2-9.8-12.8-9-9.6 1.3-19.2 3.6-28.7 5.4-6.9 1.3-16 1.6-18.8 9.3-4.3 11.9 8.8 29.4 20.9 30.4 6.9.5 15.5-1.1 21.8-3.7 7.7-3.2 11.2-9.8 17.4-14.8l-4.9-4.9c-5.6 6-10.6 12.6-15 19.6-2.1 3.4 2.7 7.1 5.5 4.2 2.6-2.7 5.2-5.4 7.8-8 2.7-2.7-.9-7.9-4.2-5.5-3.8 2.8-8.2 6.2-13.1 6.5-4.9.3-9.9-2.3-13.9-4.7-3.5-2.1-6.9-4.9-8.9-8.5-1.1-2-1.9-4.4-1.7-6.7.2-1.4.6-2.9 1.9-3.7.5-.3 2.8-1.1 2.7.3.3-.8.7-1.6 1-2.5-1.6 2-5.5 2.3-7.8 2.5-2.3.2-3.9 2.1-3.4 4.4.9 4.3 5.6 5 9.3 6.1 5.3 1.6 11 4.1 16.5 4.8 4.5.6 6.4-3.2 9-6.3 4-4.8 8.1-9.7 12.1-14.5-1.9-.5-3.9-1-5.8-1.5.7 5 1.2 10.4-2.8 14.2-3.9 3.6-9.2 5.3-14.2 4.1-9.4-2.2-19.2-3.9-28.1-7.5l2.1 5.1c1.4-3.2 12.1 8.5 13.3 9.5 3.2 2.9 6.9 5.8 11.3 6.6 9.2 1.6 14.5-7.7 20.6-12.8 3-2.5-1-7.9-4.2-5.5-4.3 3.2-8.8 6-13.6 8.4-3.5 1.8-1.1 7.6 2.7 6.4 6.7-2.2 12.6-5.5 18-9.9l-4.9-4.9c-3.3 3.6-7.1 5.7-11.9 6.8 1.1 1.9 2.3 3.9 3.4 5.8 6.1-5 10.9-11.1 14.4-18.2 2-4.1-3.5-7.2-6-3.5-5.1 7.3-9.5 15-13.1 23.1-1.6 3.5 2.4 7 5.5 4.2 5-4.6 8.4-10.4 10.7-16.7 1.4-4 2.3-8.2 3.1-12.4.6-3.3 1.6-6.7.8-10.1-.5-2-3.3-3.4-5.1-2.1-8.4 6.2-12.8 15.9-20.9 22.4 1.9 1.1 3.9 2.3 5.8 3.4 1.1-5.9 3.2-11.1 6.7-16-2-1.2-4-2.4-6-3.5-3.7 5.8-8.8 10.1-15 13 1.8 1 3.5 2 5.3 3 .4-5.4 2.4-10.3 5.9-14.5-1.8-.2-3.7-.5-5.5-.7 1.5 2 1.5 4.6-.8 6.1l5.1 2.1c-.8-1.5-.7-3 .1-4.3 1.6-4.2-5.1-6-6.7-1.9-1.1 2.7-1.1 5.3-.1 8 .7 2 3.1 3.4 5.1 2.1 5.3-3.4 7.1-10.4 3.3-15.6-1.2-1.7-3.9-2.6-5.5-.7-4.8 5.7-7.4 12-8 19.4-.2 2.9 3.1 4.1 5.3 3 7.3-3.4 13.2-8.7 17.5-15.5 2.5-3.8-3.5-7.2-6-3.5-3.7 5.4-6.2 11.3-7.4 17.7-.7 3.6 3.1 5.6 5.8 3.4 7.6-6.1 11.6-15.6 19.5-21.3l-5.1-2.1c.6 2.7-.9 7.3-1.5 9.9-.6 3-1.4 5.9-2.4 8.8-1.9 5.3-4.7 9.9-8.9 13.7 1.8 1.4 3.7 2.8 5.5 4.2 3.6-8.1 8-15.8 13.1-23.1-2-1.2-4-2.4-6-3.5-3.3 6.6-7.6 12.1-13.3 16.8-2.9 2.4.3 6.5 3.4 5.8 5.9-1.2 10.9-4.1 15-8.6 3.1-3.4-1.5-7.8-4.9-4.9-4.5 3.7-9.4 6.3-14.9 8.1.9 2.1 1.8 4.3 2.7 6.4 4.8-2.4 9.3-5.2 13.6-8.4-1.4-1.8-2.8-3.7-4.2-5.5-3.6 3.1-6.6 7.8-10.8 10.1-5.3 2.8-10.5-3.1-13.9-6.5-4.7-4.6-16.5-16.8-21.5-5.5-1 2.2-.2 4.2 2.1 5.1 6.5 2.7 13.5 4 20.3 5.7 6.2 1.5 12.5 4 18.8 1.7 4.9-1.8 10.1-4.6 12.9-9.3 3.2-5.4 2.6-11.5 1.7-17.4-.3-2.5-4.3-3.4-5.8-1.5-2.4 2.9-4.8 5.8-7.3 8.7-1.2 1.4-2.4 2.9-3.6 4.3-1.1 1.3-2.7 4.3-4.2 5.1-1.5.8-2.8-.1-4.7-.6-1.8-.5-3.7-1.1-5.5-1.6-1.2-.4-9.8-2.5-9.9-2.8-1.1 1.5-2.2 3-3.4 4.4 4.1-.4 11.3-1 13.3-5.3 1.5-3.2-.4-6.9-3.3-8.5-8.8-4.9-15.7 5.1-14.7 13 1.2 9.6 9.6 16.4 17.8 20.4 4.8 2.3 9.9 4.1 15.3 3.4 5.7-.7 10.5-4 15-7.3-1.4-1.8-2.8-3.7-4.2-5.5-2.6 2.7-5.2 5.4-7.8 8 1.8 1.4 3.7 2.8 5.5 4.2 4-6.5 8.7-12.6 13.9-18.2 3.1-3.3-1.5-7.8-4.9-4.9-3.5 2.9-5.9 6.8-9.3 9.8-3.5 3.2-8 4.6-12.6 5.5-4.4.9-11 2.4-15.1.1-4.2-2.4-8.2-6.5-10.3-10.8-2.5-5.1-2.8-10.7 3.6-12.3 5.2-1.3 10.6-2 15.9-3 5.5-1 10.9-2.1 16.4-3.1 2.5-.5 7.2-2.2 9.1.5 1.2 1.8.7 9.7-2 10.1l4.3 4.3c2.1-8.7 3.2-17.6 3.4-26.5 0-2.8-3-4.1-5.3-3-8.5 4.1-17.7 6.1-26.9 7.4-9.6 1.4-18.6 1.2-26.4-5.4-.8 2-1.6 4-2.5 6 8.5 1.1 17.1 1.7 25.7 1.9 6.3.1 13.2.5 19.2-2 3.3-1.3 5.6-3.9 8.7-5.5 5.6-2.8 6.7 2.9 6.9 7.1.2 7.1 1.3 16.3-.9 23.1-2.2 6.7-6.7 14.8-13.8 17.1-7.2 2.3-16.2 1.7-23.5.7-8.5-1.1-12.3-6.9-15.2-14.5-1.4-3.7-2.1-7.6-2.5-11.5-.3-3.9-1.1-9.3 0-13l-2.4 2.4c2.6-.5 6 2 7.9 3.3.3-2.1.6-4.3.8-6.4-3.4.7-6.7 1.7-10 2.9 1.3 1.7 2.6 3.4 4 5.1 1.9-3 5.4-8.2 4.4-11.9-1.1-3.9-5.6-3.3-8.8-3.3-5.6 0-5.6 7-1.1 7z"/><path fill="none" stroke="#F8F4E3" stroke-width="6" stroke-linecap="round" stroke-miterlimit="10" d="M418.5 134.1c-1.5-4.5-9.4-12.8-15.3-9.6-5.8 3.1-17.7 3.4-17.7 3.4s-12.2-.3-18-3.4c-5.9-3.2-14 5.1-15.5 9.6-.4 2-6.3 15 8.9 64.3 1.1 3.4 5.5 4.7 5.5 4.7 6.9 2.3 19 2.2 19 2.2s11.8.1 18.7-2.2c0 0 4.4-1.3 5.4-4.7 15.4-49.2 9.4-62.3 9-64.3z"/><path fill="none" stroke="#F8F4E3" stroke-width="3" stroke-miterlimit="10" d="M413.7 182.4c-8.5 11-28.1 10.3-28.1 10.3s-20 .8-28.6-10.3"/><path opacity=".4" fill="#F2F2F2" d="M410.4 134.1c-.9-3.2-.1 1.9-8 3.2-7.9 1.2 4.7 21.3 4.6 29.2 0 7.8 10.2 3.1 3.4-32.4"/><g><path opacity=".4" fill="#565053" d="M420 239.5s-34.7-4.5-44.7-22.5c-9.4-62 97.8 10.6 89.9 18.3-7.8 7.7-45.2 4.2-45.2 4.2z"/><path fill="#FDA8AA" d="M460.5 221.8c-2.7.9-3.9 1.7-5.5 4.1-2 3.1-5.9 1.8-9.3 1.8-4.4 0-8.9.9-13.3 1.3-2.7.2-6.2.9-8.8-.5-2.4-1.3-3.8-4.4-5-6.8l-4.8 4.8c7.8 4.2 16.5 5 25.3 5.1 9.2.1 16.9-.3 25-5 3.9-2.2.4-8.3-3.5-6-7 4-13.6 4.1-21.5 4-7.4-.1-15.1-.6-21.7-4.1-3.1-1.7-6.4 1.7-4.8 4.8 2.5 4.8 5.6 9.4 11.2 10.7 6 1.4 13-.5 19.1-1 4.2-.4 8.7.7 12.8-.5 1.7-.5 3.3-1.4 4.3-2.9.5-.7.7-1.5 1.1-2.3.6-1.2-1.1 0 1.2-.7 4.4-1.4 2.5-8.2-1.8-6.8z"/><path fill="#6A4C93" d="M445.5 172.6c-5.5-.3-11.1-.3-16.6.1-2.5.2-5.1.7-7.6.7-1 0-2 .1-2.9-.5-.3-.2-1.9-2-1.7-2l-3.6 3.9c.6.2 1.1.4 1.7.6.9.5 2.4.7 3.4 1 2.3.6 4.6 1.1 6.9 1.5 5.2.8 10.4 1.1 15.7.8 7.7-.4 7.7-11.7 0-12-4.6-.2-9-1.1-13.3-2.9-3.8-1.7-7.1-4.1-11.2-4.9.5 3.7 1 7.3 1.4 11 3.6-2.4 10.2 3.4 13.9 4.4 5.8 1.6 12.1 0 18 .8 3.2.5 6.5 1.3 9.5 2.4.8.3 3.2 2.1 2.7.4.2.7-1.4 4.3-1.6 5-1.7 6.1-2.7 12.4-3.1 18.7-.1 1.8.3 4.8-.9 6.2-1.5 1.7-6.3 2.1-8.4 2.6-6.2 1.3-12.5 1.6-18.8 1.1-2.9-.2-6.5-.1-8-2.7-1.4-2.4-2.1-5.8-3-8.5-.9-2.9-1.7-5.8-2.1-8.8-.1-.8 0-8.1 0-8.1-1.5-1.9-2.9-3.9-4.4-5.8-.1 8-3 16-.1 23.9 2 5.5 6.4 8.1 11.8 9.7 7.3 2.1 15.5 2.4 23.1 2.2 6.6-.1 14.4.5 18.1-6 3.5-6.2 5-14.4 5.2-21.5.2-7.4-3.1-12.9-10.7-14.5-7.6-1.6-15.4 1.4-22.4 4.1-7.1 2.8-13.6 6.2-19 11.7-2.9 3-1.9 7.2 1.2 9.4 6.2 4.6 14.1 5.5 21.6 4.8 6.7-.6 14.8-1.8 19.1-7.6 4.6-6.2 2.2-14.5-5.8-15.7-8.4-1.2-17.6 5.3-24.2 9.7-4.3 2.8-3.6 9.4 1.4 11 7 2.2 13.9 4.7 21 6.5 6.1 1.6 11.4-.9 12.1-7.5.7-7.7-11.3-7.6-12 0 0 .3-.1.6-.1.9l1.8-4.2c2-.6 1.9-1-.3-1.2-.6-.2-1.2-.4-1.8-.5-2-.6-4.1-1.3-6.1-1.9-3.8-1.2-7.6-2.4-11.4-3.5.5 3.7 1 7.3 1.4 11 3.8-2.5 7.7-4.9 11.9-6.8.4-.2 8.4-2.5 2.5-4.6-.2-.1-3.5 1.6-4 1.7-6.9 1.8-15 2.1-21-2.3.4 3.1.8 6.3 1.2 9.4 6.3-6.4 15.9-10.3 24.6-12.2 1.4-.3 5.5-1.3 6.8-.1.7.7.1 3.8 0 5.1-.2 2.4-.7 4.8-1.4 7.2-.3 1.1-.7 2.3-1.1 3.4-.2.5-1.2 2.3-.6 1.9-1.4.9-5.5.3-7.2.3-2.3.1-4.6.1-6.8 0-4.6-.2-9.4-.5-13.9-1.8-3.9-1.1-4.4-3.1-4.3-7.2.2-5 1.4-9.8 1.4-14.8 0-2.5-1.9-5.3-4.4-5.8-18.5-3.6-15.9 21-12.6 31.7 2.1 6.7 4 15.2 11.2 18 6.9 2.7 15.6 2.6 22.9 2 7-.6 15.3-1.6 21.5-5.1 6.2-3.5 6.8-10.4 7.1-16.8.2-4 .8-8 1.7-12 .9-3.8 2.8-7.7 3-11.7.3-8.4-8.3-11.2-15-13-4.2-1.2-8.7-1.9-13.1-2.1-4.4-.2-9.1 1-13.2-.9-6.9-3.1-13.8-7.1-21-2.4-4 2.6-3.9 9.9 1.4 11 4.5.9 8.6 4 13 5.6 4.7 1.7 9.7 2.4 14.7 2.7v-12c-8.8.5-16.2-1.3-24.5-3.5-6.6-1.7-13 2-11.5 9.5 1.3 6.6 7.1 11.8 13.8 12.5 4.4.4 8.9-.5 13.3-.8 4.6-.2 9.1-.2 13.7.1 7.7.4 7.7-11.6 0-12z"/><path fill="none" stroke="#F8F4E3" stroke-width="6" stroke-linecap="round" stroke-miterlimit="10" d="M471.5 166.1c-1.5-4.5-9.4-12.8-15.3-9.6-5.8 3.1-17.7 3.4-17.7 3.4s-12.2-.3-18-3.4c-5.9-3.2-14 5.1-15.5 9.6-.4 2-6.3 15 8.9 64.3 1.1 3.4 5.5 4.7 5.5 4.7 6.9 2.3 19 2.2 19 2.2s11.8.1 18.7-2.2c0 0 4.4-1.3 5.4-4.7 15.4-49.2 9.4-62.3 9-64.3z"/><path fill="none" stroke="#F8F4E3" stroke-width="3" stroke-miterlimit="10" d="M466.7 214.4c-8.5 11-28.1 10.3-28.1 10.3s-20 .8-28.6-10.3"/><path fill="#323031" d="M457.4 154.8s-2.3-60.8-4.2-63.3-10.8-4-15.6-4c-4.9 0-13.5 1.4-15.5 4s-4.2 63.2-4.2 63.2 17.9 9.3 39.5.1"/><path opacity=".4" fill="#F2F2F2" d="M461.4 165.1c-.9-3.2-.1 1.9-8 3.2-7.9 1.2 4.7 21.3 4.6 29.2 0 7.8 10.2 3.1 3.4-32.4"/></g><g><path opacity=".4" fill="#565053" d="M504 237.5s-22.2-2.9-36.2-13.2c0 0 5.8-17.6 7.2-34.1 27.5-.4 79.8 37.7 74.2 43.1-7.8 7.7-45.2 4.2-45.2 4.2z"/><path fill="#323031" d="M540.4 151.8s-2.3-60.8-4.2-63.3c-2-2.6-10.8-4-15.6-4-4.9 0-13.5 1.4-15.5 4s-4.2 63.2-4.2 63.2 17.9 9.3 39.5.1"/><path fill="#30638E" d="M530.8 177.5c3.3 0 6.5.2 9.8.6l-4.2-10.2c-.8.7-4.3-.1-5.3-.1-2.8-.2-5.5-.4-8.3-.6-5.1-.4-10.2-.6-15.3-1.2-3.5-.4-6.5-1.7-9.9-.6-1.6.5-3.1 1.3-4.6 2-.9.4-2.7.8-1.9.8l4.2 1.8c-.1-.1-.2-.1-.3-.2-.9 3.3-1.8 6.7-2.6 10 7.4-1.2 16.7-4.8 24-1.9 9 3.6 19.7 13.6 30.1 10.6 4.2-1.2 7.1-4.6 8.4-8.6 1.4-3.9 2.4-10.4-.9-13.6-2.5-2.5-6.6-1.9-9.8-1.7-11.7.6-23.5 1.8-35.2 3.4-6.3.9-24 1.5-21.8 11.8 1.3 6.1 8.6 5.6 13.5 6.1 3.4.3 6.8.5 10.1.9 6.2.8 12.5 2.5 18.5 4.4 2.9.9 5.6 2.3 8.5 3.2 1.4.4 8.2.6 8.3.6-1-1.7-2-3.5-3-5.2.1 2.8-1.7 6.4-2.5 9.1-.8 2.4-1.5 5.6-3.5 7.2-2 1.6-5.5 2.2-7.9 2.9-3.2 1-6.6 2.3-10 2.6-3.1.2-6.1-.6-9.2-1.3-3.2-.7-6.5-.7-7.6-4.1-2.2-6.6-2-14.8-2.9-21.7l-6 6c9.7-1.1 21.1 1.5 30.5 3.9 2.7.7 5.3 1.4 7.9 2.4.7.2 2.6 1.4 3.2 1.3 1 .6 1 .3.1-.9-.2-1.5-.7-1.7-1.2-.5-1.6.6-3.6 4.1-5.1 5.3-1.9 1.6-3.9 2.8-6.3 3.4-4.4 1.1-9.8.2-13.1-3-1.4-1.3-2.5-3.2-2.7-5.2-.2-2.9.5-2.8 3.1-2.8 2.6.1 5.1.7 7.6 1.4 1.3.4 3.1 1.5 4.5 1.5l1.8.6v-4c-.7-.2-4.1 2-5.4 2.1-.9.1-2.7-.6-3.5-.5-1.4.3-2.1 4.5-.4 5.6 6.5 4.3 12.5-6.1 6.1-10.4-6.3-4.2-17.7-3-17.6 6.7.1 8.6 10.9 11.2 17.7 10.3 6.6-.9 16.4-5.9 14.4-14-2-8.1-15.5-10.3-22.4-11.1-9-1-16.8 2.4-17.8 12.2-.8 8.1 4 15.7 11 19.6 7.7 4.3 17.5 4.5 25.4.4 6-3.1 15.2-11 15.6-18.2.6-9.8-14.3-12.5-21.4-14.2-5.3-1.2-10.7-2-16-2.7-5.2-.7-10.6-1.7-15.9-1.2-2.9.3-6.4 2.5-6 6 1 8.4 1 18.3 3.8 26.3s9.8 9.9 17.3 11.5c8.2 1.7 15 1.2 22.9-1.4 7.2-2.3 14.2-4.2 17.9-11.4 1.7-3.3 2.7-7 3.8-10.6 1-3.2 2.8-7.3 1.7-10.7-1-3.1-3.8-4.6-6.9-4.9-1.7-.2-3.6.3-5.3 0-2.3-.4-4.6-1.7-6.7-2.5-8-2.9-16.5-5-25-6-5.1-.6-11.6.2-16.3-1.8l4.2 4.2c.2 2.5-.5 4.4-2.4 5.5.2-.1.3-.2.5-.3-.3-.2-1.1.3.5-.1 1.4-.3 2.7-.7 4.1-1 3.9-.8 7.9-1.4 11.8-1.9 9.3-1.2 18.7-2.1 28.1-2.7 2.3-.1 5.3.3 7.6-.3h.3c-2-.1-3.8-1-5.3-2.6-.8.8.1 2.6-1.3 3.2-2.4 1-9.4-4-11.5-5.1-6.9-3.6-13.2-7.3-21.1-7-7.1.2-14 2.1-20.9 3.2-4.2.7-6.1 7.4-2.6 10 3.8 2.9 7.1 1.9 11.1.1 1.1-.5 3.4-1.5 3.6-1.5 1.3-.1 5.7 1.1 8 1.3 6.7.6 13.4 1 20.1 1.5 5.9.5 10.8.7 15.6-3.2 4.5-3.7.3-9.7-4.2-10.2-3.3-.4-6.5-.6-9.8-.6-8.1 0-8.1 12-.4 12z"/><path fill="#FDA8AA" d="M542.5 219.8c-2.7.9-3.9 1.7-5.5 4.1-2 3.1-5.9 1.8-9.3 1.8-4.4 0-8.9.9-13.3 1.3-2.7.2-6.2.9-8.8-.5-2.4-1.3-3.8-4.4-5-6.8l-4.8 4.8c7.8 4.2 16.5 5 25.3 5.1 9.2.1 16.9-.3 25-5 3.9-2.2.4-8.3-3.5-6-7 4-13.6 4.1-21.5 4-7.4-.1-15.1-.6-21.7-4.1-3.1-1.7-6.4 1.7-4.8 4.8 2.5 4.8 5.6 9.4 11.2 10.7 6 1.4 13-.5 19.1-1 4.2-.4 8.7.7 12.8-.5 1.7-.5 3.3-1.4 4.3-2.9.5-.7.7-1.5 1.1-2.3.6-1.2-1.1 0 1.2-.7 4.4-1.4 2.5-8.2-1.8-6.8z"/><path fill="none" stroke="#F8F4E3" stroke-width="6" stroke-linecap="round" stroke-miterlimit="10" d="M553.5 164.1c-1.5-4.5-9.4-12.8-15.3-9.6-5.8 3.1-17.7 3.4-17.7 3.4s-12.2-.3-18-3.4c-5.9-3.2-14 5.1-15.5 9.6-.4 2-6.3 15 8.9 64.3 1.1 3.4 5.5 4.7 5.5 4.7 6.9 2.3 19 2.2 19 2.2s11.8.1 18.7-2.2c0 0 4.4-1.3 5.4-4.7 15.4-49.2 9.4-62.3 9-64.3z"/><path fill="none" stroke="#F8F4E3" stroke-width="3" stroke-miterlimit="10" d="M548.7 212.4c-8.5 11-28.1 10.3-28.1 10.3s-20 .8-28.6-10.3"/><path opacity=".4" fill="#F2F2F2" d="M544.4 163.1c-.9-3.2-.1 1.9-8 3.2-7.9 1.2 4.7 21.3 4.6 29.2 0 7.8 10.2 3.1 3.4-32.4"/></g></g></svg>